<svg xmlns="http://www.w3.org/2000/svg" viewBox="0 0 512 512"><rect width="512" height="512" rx="112" fill="#4f46e5"/><path fill="#fff" d="M146 128h220v256H146z" opacity=".18"/><path fill="#fff" d="M166 150h180v34H166zm0 67h180v28H166zm0 61h91v28h-91zm0 61h180v28H166z"/><circle cx="312" cy="292" r="54" fill="#22c55e"/><path d="M316 258c-26 0-32 31-8 38l9 3c9 3 7 15-3 15-8 0-14-4-18-8l-12 14c6 8 15 12 25 13v12h14v-13c25-6 29-37 5-45l-10-3c-8-3-6-14 3-14 7 0 12 4 16 7l11-14c-5-6-12-10-22-11v-10h-14v10z" fill="#fff"/></svg>
